<?xml version="1.0" encoding="UTF-8"?>
<svg xmlns="http://www.w3.org/2000/svg" xmlns:xlink="http://www.w3.org/1999/xlink" width="242pt" height="51pt" viewBox="0 0 242 51" version="1.1">
<g id="surface1">
<path style=" stroke:none;fill-rule:nonzero;fill:rgb(30.195618%,30.195618%,30.195618%);fill-opacity:1;" d="M 7.070312 31.140625 L 7.070312 5.628906 L 24.078125 5.628906 L 24.078125 31.140625 Z M 7.070312 31.140625 "/>
<path style="fill:none;stroke-width:0.3985;stroke-linecap:butt;stroke-linejoin:miter;stroke:rgb(97.254944%,97.254944%,100%);stroke-opacity:1;stroke-miterlimit:10;" d="M 21.258406 -0.0014375 L 21.258406 42.522 L 63.781844 42.522 L 63.781844 -0.0014375 Z M 21.258406 -0.0014375 " transform="matrix(1,0,0,-1,-20.567,43.897)"/>
<path style="fill:none;stroke-width:0.3985;stroke-linecap:butt;stroke-linejoin:miter;stroke:rgb(97.254944%,97.254944%,100%);stroke-opacity:1;stroke-miterlimit:10;" d="M 28.000594 -4.251438 L 44.28575 -4.251438 " transform="matrix(1,0,0,-1,-20.567,43.897)"/>
<path style="fill:none;stroke-width:0.3985;stroke-linecap:round;stroke-linejoin:miter;stroke:rgb(97.254944%,97.254944%,100%);stroke-opacity:1;stroke-miterlimit:10;" d="M -1.294583 -2.590666 C 0.646824 -1.293791 0.646824 1.296053 -1.294583 2.589021 " transform="matrix(-1,0,0,1,7.43198,48.14926)"/>
<path style="fill:none;stroke-width:0.3985;stroke-linecap:round;stroke-linejoin:miter;stroke:rgb(97.254944%,97.254944%,100%);stroke-opacity:1;stroke-miterlimit:10;" d="M -1.296315 -2.589021 C 0.648997 -1.296053 0.648997 1.293791 -1.296315 2.590666 " transform="matrix(1,0,0,-1,23.71819,48.14926)"/>
<path style="fill:none;stroke-width:0.3985;stroke-linecap:butt;stroke-linejoin:miter;stroke:rgb(97.254944%,97.254944%,100%);stroke-opacity:1;stroke-miterlimit:10;" d="M 68.031844 13.11575 L 68.031844 37.908719 " transform="matrix(1,0,0,-1,-20.567,43.897)"/>
<path style="fill:none;stroke-width:0.3985;stroke-linecap:round;stroke-linejoin:miter;stroke:rgb(97.254944%,97.254944%,100%);stroke-opacity:1;stroke-miterlimit:10;" d="M -1.295315 -2.59058 C 0.646091 -1.293705 0.646091 1.296139 -1.295315 2.589108 " transform="matrix(0,1,1,0,47.46558,30.77969)"/>
<path style="fill:none;stroke-width:0.3985;stroke-linecap:round;stroke-linejoin:miter;stroke:rgb(97.254944%,97.254944%,100%);stroke-opacity:1;stroke-miterlimit:10;" d="M -1.294926 -2.589108 C 0.64648 -1.296139 0.64648 1.293705 -1.294926 2.59058 " transform="matrix(0,-1,-1,0,47.46558,5.99023)"/>
<path style="fill:none;stroke-width:0.3985;stroke-linecap:butt;stroke-linejoin:miter;stroke:rgb(97.254944%,97.254944%,100%);stroke-opacity:1;stroke-dasharray:2.98883,2.98883;stroke-miterlimit:10;" d="M 27.637313 12.756375 L 27.637313 38.268094 L 44.645125 38.268094 L 44.645125 12.756375 Z M 27.637313 12.756375 " transform="matrix(1,0,0,-1,-20.567,43.897)"/>
<path style="fill:none;stroke-width:0.79701;stroke-linecap:butt;stroke-linejoin:miter;stroke:rgb(0%,100%,0%);stroke-opacity:1;stroke-miterlimit:10;" d="M 36.141219 13.354031 L 36.141219 37.670437 " transform="matrix(1,0,0,-1,-20.567,43.897)"/>
<path style="fill:none;stroke-width:0.79701;stroke-linecap:round;stroke-linejoin:miter;stroke:rgb(0%,100%,0%);stroke-opacity:1;stroke-miterlimit:10;" d="M -1.593851 -3.188691 C 0.796774 -1.594941 0.796774 1.592559 -1.593851 3.186309 " transform="matrix(0,1,1,0,15.57541,30.54307)"/>
<path style="fill:none;stroke-width:0.79701;stroke-linecap:round;stroke-linejoin:miter;stroke:rgb(0%,100%,0%);stroke-opacity:1;stroke-miterlimit:10;" d="M -1.593463 -3.186309 C 0.797162 -1.592559 0.797162 1.594941 -1.593463 3.188691 " transform="matrix(0,-1,-1,0,15.57541,6.22685)"/>
<path style=" stroke:none;fill-rule:nonzero;fill:rgb(100%,0%,0%);fill-opacity:1;" d="M 16.636719 18.382812 C 16.636719 17.796875 16.164062 17.320312 15.574219 17.320312 C 14.988281 17.320312 14.511719 17.796875 14.511719 18.382812 C 14.511719 18.972656 14.988281 19.449219 15.574219 19.449219 C 16.164062 19.449219 16.636719 18.972656 16.636719 18.382812 Z M 16.636719 18.382812 "/>
<path style=" stroke:none;fill-rule:nonzero;fill:rgb(30.195618%,30.195618%,30.195618%);fill-opacity:1;" d="M 70.851562 1.375 L 70.851562 26.890625 L 87.859375 26.890625 L 87.859375 1.375 Z M 70.851562 1.375 "/>
<path style="fill:none;stroke-width:0.3985;stroke-linecap:butt;stroke-linejoin:miter;stroke:rgb(97.254944%,97.254944%,100%);stroke-opacity:1;stroke-miterlimit:10;" d="M 85.039656 -0.0014375 L 85.039656 42.522 L 127.559188 42.522 L 127.559188 -0.0014375 Z M 85.039656 -0.0014375 " transform="matrix(1,0,0,-1,-20.567,43.897)"/>
<path style="fill:none;stroke-width:0.3985;stroke-linecap:butt;stroke-linejoin:miter;stroke:rgb(97.254944%,97.254944%,100%);stroke-opacity:1;stroke-miterlimit:10;" d="M 91.777938 -4.251438 L 108.067 -4.251438 " transform="matrix(1,0,0,-1,-20.567,43.897)"/>
<path style="fill:none;stroke-width:0.3985;stroke-linecap:round;stroke-linejoin:miter;stroke:rgb(97.254944%,97.254944%,100%);stroke-opacity:1;stroke-miterlimit:10;" d="M -1.295473 -2.590666 C 0.645934 -1.293791 0.645934 1.296053 -1.295473 2.589021 " transform="matrix(-1,0,0,1,71.21234,48.14926)"/>
<path style="fill:none;stroke-width:0.3985;stroke-linecap:round;stroke-linejoin:miter;stroke:rgb(97.254944%,97.254944%,100%);stroke-opacity:1;stroke-miterlimit:10;" d="M -1.295415 -2.589021 C 0.645991 -1.296053 0.645991 1.293791 -1.295415 2.590666 " transform="matrix(1,0,0,-1,87.49854,48.14926)"/>
<path style="fill:none;stroke-width:0.3985;stroke-linecap:butt;stroke-linejoin:miter;stroke:rgb(97.254944%,97.254944%,100%);stroke-opacity:1;stroke-miterlimit:10;" d="M 131.813094 17.369656 L 131.813094 42.322781 " transform="matrix(1,0,0,-1,-20.567,43.897)"/>
<path style="fill:none;stroke-width:0.3985;stroke-linecap:round;stroke-linejoin:miter;stroke:rgb(97.254944%,97.254944%,100%);stroke-opacity:1;stroke-miterlimit:10;" d="M -1.293665 -2.58968 C 0.647741 -1.296711 0.647741 1.297039 -1.293665 2.590007 " transform="matrix(0,1,1,0,111.24593,26.52804)"/>
<path style="fill:none;stroke-width:0.3985;stroke-linecap:butt;stroke-linejoin:miter;stroke:rgb(97.254944%,97.254944%,100%);stroke-opacity:1;stroke-miterlimit:10;" d="M -1.494263 -2.590007 L 0.00183125 -2.590007 L 0.00183125 2.58968 L -1.494263 2.58968 " transform="matrix(0,-1,-1,0,111.24593,1.57605)"/>
<path style="fill:none;stroke-width:0.3985;stroke-linecap:butt;stroke-linejoin:miter;stroke:rgb(97.254944%,97.254944%,100%);stroke-opacity:1;stroke-dasharray:2.98883,2.98883;stroke-miterlimit:10;" d="M 91.418563 42.522 L 91.418563 17.006375 L 108.426375 17.006375 L 108.426375 42.522 " transform="matrix(1,0,0,-1,-20.567,43.897)"/>
<path style="fill:none;stroke-width:0.79701;stroke-linecap:butt;stroke-linejoin:miter;stroke:rgb(0%,100%,0%);stroke-opacity:1;stroke-miterlimit:10;" d="M 99.922469 17.604031 L 99.922469 42.123562 " transform="matrix(1,0,0,-1,-20.567,43.897)"/>
<path style="fill:none;stroke-width:0.79701;stroke-linecap:round;stroke-linejoin:miter;stroke:rgb(0%,100%,0%);stroke-opacity:1;stroke-miterlimit:10;" d="M -1.592201 -3.187791 C 0.798424 -1.594041 0.798424 1.593459 -1.592201 3.187209 " transform="matrix(0,1,1,0,79.35576,26.29142)"/>
<path style="fill:none;stroke-width:0.79701;stroke-linecap:butt;stroke-linejoin:miter;stroke:rgb(0%,100%,0%);stroke-opacity:1;stroke-miterlimit:10;" d="M -1.994221 -3.187209 L 0.0018725 -3.187209 L 0.0018725 3.187791 L -1.994221 3.187791 " transform="matrix(0,-1,-1,0,79.35576,1.77531)"/>
<path style=" stroke:none;fill-rule:nonzero;fill:rgb(100%,0%,0%);fill-opacity:1;" d="M 80.417969 1.375 C 80.417969 0.789062 79.941406 0.3125 79.355469 0.3125 C 78.769531 0.3125 78.292969 0.789062 78.292969 1.375 C 78.292969 1.964844 78.769531 2.441406 79.355469 2.441406 C 79.941406 2.441406 80.417969 1.964844 80.417969 1.375 Z M 80.417969 1.375 "/>
<path style=" stroke:none;fill-rule:nonzero;fill:rgb(30.195618%,30.195618%,30.195618%);fill-opacity:1;" d="M 128.253906 26.890625 L 153.765625 26.890625 L 153.765625 9.878906 L 128.253906 9.878906 Z M 128.253906 26.890625 "/>
<path style="fill:none;stroke-width:0.3985;stroke-linecap:butt;stroke-linejoin:miter;stroke:rgb(97.254944%,97.254944%,100%);stroke-opacity:1;stroke-miterlimit:10;" d="M 148.820906 -0.0014375 L 148.820906 42.522 L 191.340438 42.522 L 191.340438 -0.0014375 Z M 148.820906 -0.0014375 " transform="matrix(1,0,0,-1,-20.567,43.897)"/>
<path style="fill:none;stroke-width:0.3985;stroke-linecap:butt;stroke-linejoin:miter;stroke:rgb(97.254944%,97.254944%,100%);stroke-opacity:1;stroke-miterlimit:10;" d="M 149.020125 -4.251438 L 173.97325 -4.251438 " transform="matrix(1,0,0,-1,-20.567,43.897)"/>
<path style="fill:none;stroke-width:0.3985;stroke-linecap:butt;stroke-linejoin:miter;stroke:rgb(97.254944%,97.254944%,100%);stroke-opacity:1;stroke-miterlimit:10;" d="M -1.496169 -2.590666 L -0.000075 -2.590666 L -0.000075 2.589021 L -1.496169 2.589021 " transform="matrix(-1,0,0,1,128.45305,48.14926)"/>
<path style="fill:none;stroke-width:0.3985;stroke-linecap:round;stroke-linejoin:miter;stroke:rgb(97.254944%,97.254944%,100%);stroke-opacity:1;stroke-miterlimit:10;" d="M -1.295655 -2.589021 C 0.645751 -1.296053 0.645751 1.293791 -1.295655 2.590666 " transform="matrix(1,0,0,-1,153.40503,48.14926)"/>
<path style="fill:none;stroke-width:0.3985;stroke-linecap:butt;stroke-linejoin:miter;stroke:rgb(97.254944%,97.254944%,100%);stroke-opacity:1;stroke-miterlimit:10;" d="M 195.594344 17.369656 L 195.594344 33.654812 " transform="matrix(1,0,0,-1,-20.567,43.897)"/>
<path style="fill:none;stroke-width:0.3985;stroke-linecap:round;stroke-linejoin:miter;stroke:rgb(97.254944%,97.254944%,100%);stroke-opacity:1;stroke-miterlimit:10;" d="M -1.293665 -2.58878 C 0.647741 -1.295811 0.647741 1.294033 -1.293665 2.590908 " transform="matrix(0,1,1,0,175.02628,26.52804)"/>
<path style="fill:none;stroke-width:0.3985;stroke-linecap:round;stroke-linejoin:miter;stroke:rgb(97.254944%,97.254944%,100%);stroke-opacity:1;stroke-miterlimit:10;" d="M -1.293296 -2.590908 C 0.64811 -1.294033 0.64811 1.295811 -1.293296 2.58878 " transform="matrix(0,-1,-1,0,175.02628,10.24186)"/>
<path style="fill:none;stroke-width:0.3985;stroke-linecap:butt;stroke-linejoin:miter;stroke:rgb(97.254944%,97.254944%,100%);stroke-opacity:1;stroke-dasharray:2.98883,2.98883;stroke-miterlimit:10;" d="M 148.820906 17.006375 L 174.332625 17.006375 L 174.332625 34.018094 L 148.820906 34.018094 " transform="matrix(1,0,0,-1,-20.567,43.897)"/>
<path style="fill:none;stroke-width:0.79701;stroke-linecap:butt;stroke-linejoin:miter;stroke:rgb(0%,100%,0%);stroke-opacity:1;stroke-miterlimit:10;" d="M 148.820906 17.604031 L 148.820906 33.420437 " transform="matrix(1,0,0,-1,-20.567,43.897)"/>
<path style="fill:none;stroke-width:0.79701;stroke-linecap:round;stroke-linejoin:miter;stroke:rgb(0%,100%,0%);stroke-opacity:1;stroke-miterlimit:10;" d="M -1.592201 -3.187394 C 0.798424 -1.593644 0.798424 1.593856 -1.592201 3.187606 " transform="matrix(0,1,1,0,128.2538,26.29142)"/>
<path style="fill:none;stroke-width:0.79701;stroke-linecap:round;stroke-linejoin:miter;stroke:rgb(0%,100%,0%);stroke-opacity:1;stroke-miterlimit:10;" d="M -1.595739 -3.187606 C 0.798792 -1.593856 0.798792 1.593644 -1.595739 3.187394 " transform="matrix(0,-1,-1,0,128.2538,10.47848)"/>
<path style=" stroke:none;fill-rule:nonzero;fill:rgb(100%,0%,0%);fill-opacity:1;" d="M 129.316406 18.382812 C 129.316406 17.796875 128.839844 17.320312 128.253906 17.320312 C 127.667969 17.320312 127.191406 17.796875 127.191406 18.382812 C 127.191406 18.972656 127.667969 19.449219 128.253906 19.449219 C 128.839844 19.449219 129.316406 18.972656 129.316406 18.382812 Z M 129.316406 18.382812 "/>
<path style=" stroke:none;fill-rule:nonzero;fill:rgb(30.195618%,30.195618%,30.195618%);fill-opacity:1;" d="M 192.035156 26.890625 L 217.546875 26.890625 L 217.546875 1.375 L 192.035156 1.375 Z M 192.035156 26.890625 "/>
<path style="fill:none;stroke-width:0.3985;stroke-linecap:butt;stroke-linejoin:miter;stroke:rgb(97.254944%,97.254944%,100%);stroke-opacity:1;stroke-miterlimit:10;" d="M 212.602156 -0.0014375 L 212.602156 42.522 L 255.121688 42.522 L 255.121688 -0.0014375 Z M 212.602156 -0.0014375 " transform="matrix(1,0,0,-1,-20.567,43.897)"/>
<path style="fill:none;stroke-width:0.3985;stroke-linecap:butt;stroke-linejoin:miter;stroke:rgb(97.254944%,97.254944%,100%);stroke-opacity:1;stroke-miterlimit:10;" d="M 212.801375 -4.251438 L 237.750594 -4.251438 " transform="matrix(1,0,0,-1,-20.567,43.897)"/>
<path style="fill:none;stroke-width:0.3985;stroke-linecap:butt;stroke-linejoin:miter;stroke:rgb(97.254944%,97.254944%,100%);stroke-opacity:1;stroke-miterlimit:10;" d="M -1.493162 -2.590666 L -0.000975 -2.590666 L -0.000975 2.589021 L -1.493162 2.589021 " transform="matrix(-1,0,0,1,192.2334,48.14926)"/>
<path style="fill:none;stroke-width:0.3985;stroke-linecap:round;stroke-linejoin:miter;stroke:rgb(97.254944%,97.254944%,100%);stroke-opacity:1;stroke-miterlimit:10;" d="M -1.294755 -2.589021 C 0.646651 -1.296053 0.646651 1.293791 -1.294755 2.590666 " transform="matrix(1,0,0,-1,217.18538,48.14926)"/>
<path style="fill:none;stroke-width:0.3985;stroke-linecap:butt;stroke-linejoin:miter;stroke:rgb(97.254944%,97.254944%,100%);stroke-opacity:1;stroke-miterlimit:10;" d="M 259.371688 42.322781 L 259.371688 17.369656 " transform="matrix(1,0,0,-1,-20.567,43.897)"/>
<path style="fill:none;stroke-width:0.3985;stroke-linecap:butt;stroke-linejoin:miter;stroke:rgb(97.254944%,97.254944%,100%);stroke-opacity:1;stroke-miterlimit:10;" d="M -1.494263 -2.591797 L 0.00183125 -2.591797 L 0.00183125 2.591796 L -1.494263 2.591796 " transform="matrix(0,-1,-1,0,238.80664,1.57605)"/>
<path style="fill:none;stroke-width:0.3985;stroke-linecap:round;stroke-linejoin:miter;stroke:rgb(97.254944%,97.254944%,100%);stroke-opacity:1;stroke-miterlimit:10;" d="M -1.293665 -2.591796 C 0.647741 -1.294921 0.647741 1.294922 -1.293665 2.591797 " transform="matrix(0,1,1,0,238.80664,26.52804)"/>
<path style="fill:none;stroke-width:0.3985;stroke-linecap:butt;stroke-linejoin:miter;stroke:rgb(97.254944%,97.254944%,100%);stroke-opacity:1;stroke-dasharray:2.98883,2.98883;stroke-miterlimit:10;" d="M 212.602156 17.006375 L 238.113875 17.006375 L 238.113875 42.522 " transform="matrix(1,0,0,-1,-20.567,43.897)"/>
<path style="fill:none;stroke-width:0.79701;stroke-linecap:butt;stroke-linejoin:miter;stroke:rgb(0%,100%,0%);stroke-opacity:1;stroke-miterlimit:10;" d="M 212.602156 17.604031 L 212.602156 42.123562 " transform="matrix(1,0,0,-1,-20.567,43.897)"/>
<path style="fill:none;stroke-width:0.79701;stroke-linecap:round;stroke-linejoin:miter;stroke:rgb(0%,100%,0%);stroke-opacity:1;stroke-miterlimit:10;" d="M -1.592201 -3.186494 C 0.798424 -1.592744 0.798424 1.594756 -1.592201 3.188506 " transform="matrix(0,1,1,0,192.03415,26.29142)"/>
<path style="fill:none;stroke-width:0.79701;stroke-linecap:butt;stroke-linejoin:miter;stroke:rgb(0%,100%,0%);stroke-opacity:1;stroke-miterlimit:10;" d="M -1.994221 -3.188506 L 0.0018725 -3.188506 L 0.0018725 3.186494 L -1.994221 3.186494 " transform="matrix(0,-1,-1,0,192.03415,1.77531)"/>
<path style=" stroke:none;fill-rule:nonzero;fill:rgb(100%,0%,0%);fill-opacity:1;" d="M 193.097656 1.375 C 193.097656 0.789062 192.621094 0.3125 192.035156 0.3125 C 191.445312 0.3125 190.972656 0.789062 190.972656 1.375 C 190.972656 1.964844 191.445312 2.441406 192.035156 2.441406 C 192.621094 2.441406 193.097656 1.964844 193.097656 1.375 Z M 193.097656 1.375 "/>
</g>
</svg>
