<?xml version="1.0" encoding="UTF-8"?>
<svg xmlns="http://www.w3.org/2000/svg" xmlns:xlink="http://www.w3.org/1999/xlink" width="51pt" height="50pt" viewBox="0 0 51 50" version="1.1">
<g id="surface1">
<path style="fill:none;stroke-width:0.3985;stroke-linecap:butt;stroke-linejoin:miter;stroke:rgb(97.254944%,97.254944%,100%);stroke-opacity:1;stroke-miterlimit:10;" d="M 0.0003125 -0.0014375 L 0.0003125 42.522 L 42.519844 42.522 L 42.519844 -0.0014375 Z M 0.0003125 -0.0014375 " transform="matrix(1,0,0,-1,7.945,42.897)"/>
<path style="fill:none;stroke-width:0.3985;stroke-linecap:butt;stroke-linejoin:miter;stroke:rgb(97.254944%,97.254944%,100%);stroke-opacity:1;stroke-miterlimit:10;" d="M 10.9925 -4.251438 L 31.527656 -4.251438 " transform="matrix(1,0,0,-1,7.945,42.897)"/>
<path style="fill:none;stroke-width:0.3985;stroke-linecap:round;stroke-linejoin:miter;stroke:rgb(97.254944%,97.254944%,100%);stroke-opacity:1;stroke-miterlimit:10;" d="M -1.294299 -2.590666 C 0.647108 -1.293791 0.647108 1.296053 -1.294299 2.589021 " transform="matrix(-1,0,0,1,18.93617,47.14926)"/>
<path style="fill:none;stroke-width:0.3985;stroke-linecap:round;stroke-linejoin:miter;stroke:rgb(97.254944%,97.254944%,100%);stroke-opacity:1;stroke-miterlimit:10;" d="M -1.294313 -2.589021 C 0.647094 -1.296053 0.647094 1.293791 -1.294313 2.590666 " transform="matrix(1,0,0,-1,39.474,47.14926)"/>
<path style="fill:none;stroke-width:0.3985;stroke-linecap:butt;stroke-linejoin:miter;stroke:rgb(97.254944%,97.254944%,100%);stroke-opacity:1;stroke-miterlimit:10;" d="M -4.253594 0.197781 L -4.253594 20.897 " transform="matrix(1,0,0,-1,7.945,42.897)"/>
<path style="fill:none;stroke-width:0.3985;stroke-linecap:butt;stroke-linejoin:miter;stroke:rgb(97.254944%,97.254944%,100%);stroke-opacity:1;stroke-miterlimit:10;" d="M -1.494625 -2.591178 L 0.00146875 -2.591178 L 0.00146875 2.58851 L -1.494625 2.58851 " transform="matrix(0,1,1,0,3.69274,42.69775)"/>
<path style="fill:none;stroke-width:0.3985;stroke-linecap:round;stroke-linejoin:miter;stroke:rgb(97.254944%,97.254944%,100%);stroke-opacity:1;stroke-miterlimit:10;" d="M -1.294909 -2.58851 C 0.646497 -1.295541 0.646497 1.294303 -1.294909 2.591178 " transform="matrix(0,-1,-1,0,3.69274,21.99806)"/>
<path style="fill-rule:nonzero;fill:rgb(16.471863%,63.920593%,30.979919%);fill-opacity:1;stroke-width:0.3985;stroke-linecap:butt;stroke-linejoin:miter;stroke:rgb(53.72467%,96.076965%,70.196533%);stroke-opacity:1;stroke-dasharray:1.99255,0.99628;stroke-miterlimit:10;" d="M 10.629219 -0.0014375 L 10.629219 21.260281 L 31.890937 21.260281 L 31.890937 -0.0014375 Z M 10.629219 -0.0014375 " transform="matrix(1,0,0,-1,7.945,42.897)"/>
<path style="fill:none;stroke-width:0.3985;stroke-linecap:butt;stroke-linejoin:miter;stroke:rgb(53.72467%,96.076965%,70.196533%);stroke-opacity:1;stroke-miterlimit:10;" d="M 10.629219 -0.0014375 L 31.890937 -0.0014375 " transform="matrix(1,0,0,-1,7.945,42.897)"/>
<path style=" stroke:none;fill-rule:nonzero;fill:rgb(30.195618%,40.783691%,100%);fill-opacity:1;" d="M 24.953125 42.898438 L 24.953125 0.375 L 29.207031 0.375 L 29.207031 42.898438 Z M 24.953125 42.898438 "/>
<path style="fill:none;stroke-width:0.3985;stroke-linecap:butt;stroke-linejoin:miter;stroke:rgb(39.608765%,94.119263%,91.372681%);stroke-opacity:1;stroke-miterlimit:10;" d="M 21.262031 8.143094 L 21.262031 -0.0014375 " transform="matrix(1,0,0,-1,7.945,42.897)"/>
<path style="fill:none;stroke-width:0.3985;stroke-linecap:round;stroke-linejoin:miter;stroke:rgb(39.608765%,94.119263%,91.372681%);stroke-opacity:1;stroke-miterlimit:10;" d="M -1.296541 -2.591785 C 0.648771 -1.29491 0.648771 1.294934 -1.296541 2.591809 " transform="matrix(0,-1,-1,0,29.20509,34.75424)"/>
<path style="fill:none;stroke-width:0.3985;stroke-linecap:butt;stroke-linejoin:miter;stroke:rgb(39.608765%,94.119263%,91.372681%);stroke-opacity:1;stroke-dasharray:1.99255,0.99628;stroke-miterlimit:10;" d="M 21.262031 -0.0014375 L 21.262031 42.522 " transform="matrix(1,0,0,-1,7.945,42.897)"/>
<path style="fill:none;stroke-width:0.3985;stroke-linecap:butt;stroke-linejoin:miter;stroke:rgb(39.608765%,94.119263%,91.372681%);stroke-opacity:1;stroke-miterlimit:10;" d="M 17.008125 38.627469 L 17.008125 42.522 " transform="matrix(1,0,0,-1,7.945,42.897)"/>
<path style="fill:none;stroke-width:0.3985;stroke-linecap:round;stroke-linejoin:miter;stroke:rgb(39.608765%,94.119263%,91.372681%);stroke-opacity:1;stroke-miterlimit:10;" d="M -1.295304 -2.589529 C 0.646103 -1.29656 0.646103 1.293284 -1.295304 2.590159 " transform="matrix(0,1,1,0,24.95281,4.26796)"/>
<path style="fill:none;stroke-width:0.3985;stroke-linecap:butt;stroke-linejoin:miter;stroke:rgb(39.608765%,94.119263%,91.372681%);stroke-opacity:1;stroke-dasharray:1.99255,0.99628;stroke-miterlimit:10;" d="M 17.008125 -0.0014375 L 17.008125 42.522 " transform="matrix(1,0,0,-1,7.945,42.897)"/>
<path style=" stroke:none;fill-rule:nonzero;fill:rgb(100%,0%,0%);fill-opacity:1;" d="M 30.269531 42.898438 C 30.269531 42.308594 29.792969 41.835938 29.207031 41.835938 C 28.617188 41.835938 28.140625 42.308594 28.140625 42.898438 C 28.140625 43.484375 28.617188 43.960938 29.207031 43.960938 C 29.792969 43.960938 30.269531 43.484375 30.269531 42.898438 Z M 30.269531 42.898438 "/>
</g>
</svg>
