<?xml version="1.0" encoding="UTF-8"?>
<svg xmlns="http://www.w3.org/2000/svg" xmlns:xlink="http://www.w3.org/1999/xlink" width="51pt" height="50pt" viewBox="0 0 51 50" version="1.1">
<g id="surface1">
<path style="fill:none;stroke-width:0.3985;stroke-linecap:butt;stroke-linejoin:miter;stroke:rgb(97.254944%,97.254944%,100%);stroke-opacity:1;stroke-miterlimit:10;" d="M 0.0003125 -0.0014375 L 0.0003125 42.522 L 42.519844 42.522 L 42.519844 -0.0014375 Z M 0.0003125 -0.0014375 " transform="matrix(1,0,0,-1,7.945,42.897)"/>
<path style="fill:none;stroke-width:0.3985;stroke-linecap:butt;stroke-linejoin:miter;stroke:rgb(97.254944%,97.254944%,100%);stroke-opacity:1;stroke-miterlimit:10;" d="M 19.496406 -4.251438 L 25.152656 -4.251438 " transform="matrix(1,0,0,-1,7.945,42.897)"/>
<path style="fill:none;stroke-width:0.3985;stroke-linecap:round;stroke-linejoin:miter;stroke:rgb(97.254944%,97.254944%,100%);stroke-opacity:1;stroke-miterlimit:10;" d="M -1.294305 -2.590666 C 0.647101 -1.293791 0.647101 1.296053 -1.294305 2.589021 " transform="matrix(-1,0,0,1,27.44007,47.14926)"/>
<path style="fill:none;stroke-width:0.3985;stroke-linecap:round;stroke-linejoin:miter;stroke:rgb(97.254944%,97.254944%,100%);stroke-opacity:1;stroke-miterlimit:10;" d="M -1.295449 -2.589021 C 0.645957 -1.296053 0.645957 1.293791 -1.295449 2.590666 " transform="matrix(1,0,0,-1,33.09623,47.14926)"/>
<path style="fill:none;stroke-width:0.3985;stroke-linecap:butt;stroke-linejoin:miter;stroke:rgb(97.254944%,97.254944%,100%);stroke-opacity:1;stroke-miterlimit:10;" d="M -4.253594 15.244656 L -4.253594 27.275906 " transform="matrix(1,0,0,-1,7.945,42.897)"/>
<path style="fill:none;stroke-width:0.3985;stroke-linecap:round;stroke-linejoin:miter;stroke:rgb(97.254944%,97.254944%,100%);stroke-opacity:1;stroke-miterlimit:10;" d="M -1.294175 -2.591178 C 0.647231 -1.294303 0.647231 1.295541 -1.294175 2.58851 " transform="matrix(0,1,1,0,3.69274,27.65355)"/>
<path style="fill:none;stroke-width:0.3985;stroke-linecap:round;stroke-linejoin:miter;stroke:rgb(97.254944%,97.254944%,100%);stroke-opacity:1;stroke-miterlimit:10;" d="M -1.293762 -2.58851 C 0.647644 -1.295541 0.647644 1.294303 -1.293762 2.591178 " transform="matrix(0,-1,-1,0,3.69274,15.6203)"/>
<path style="fill-rule:nonzero;fill:rgb(1.960754%,24.31488%,13.723755%);fill-opacity:1;stroke-width:0.3985;stroke-linecap:butt;stroke-linejoin:miter;stroke:rgb(52.549744%,100%,54.508972%);stroke-opacity:1;stroke-dasharray:1.99255,0.99628;stroke-miterlimit:10;" d="M 17.008125 14.881375 L 17.008125 27.639187 L 25.512031 27.639187 L 25.512031 14.881375 Z M 17.008125 14.881375 " transform="matrix(1,0,0,-1,7.945,42.897)"/>
<path style="fill:none;stroke-width:0.3985;stroke-linecap:butt;stroke-linejoin:miter;stroke:rgb(5.097961%,100%,100%);stroke-opacity:1;stroke-miterlimit:10;" d="M 21.262031 8.86575 L 21.262031 33.654812 " transform="matrix(1,0,0,-1,7.945,42.897)"/>
<path style="fill:none;stroke-width:0.3985;stroke-linecap:round;stroke-linejoin:miter;stroke:rgb(5.097961%,100%,100%);stroke-opacity:1;stroke-miterlimit:10;" d="M -1.293679 -2.591809 C 0.647728 -1.294934 0.647728 1.29491 -1.293679 2.591785 " transform="matrix(0,1,1,0,29.20509,34.03196)"/>
<path style="fill:none;stroke-width:0.3985;stroke-linecap:round;stroke-linejoin:miter;stroke:rgb(5.097961%,100%,100%);stroke-opacity:1;stroke-miterlimit:10;" d="M -1.293296 -2.591785 C 0.64811 -1.29491 0.64811 1.294934 -1.293296 2.591809 " transform="matrix(0,-1,-1,0,29.20509,9.24186)"/>
<path style=" stroke:none;fill-rule:nonzero;fill:rgb(100%,0%,0%);fill-opacity:1;" d="M 30.269531 21.636719 C 30.269531 21.050781 29.792969 20.574219 29.207031 20.574219 C 28.617188 20.574219 28.140625 21.050781 28.140625 21.636719 C 28.140625 22.222656 28.617188 22.699219 29.207031 22.699219 C 29.792969 22.699219 30.269531 22.222656 30.269531 21.636719 Z M 30.269531 21.636719 "/>
</g>
</svg>
